<svg id="cat" xmlns="http://www.w3.org/2000/svg" viewBox="0 0 257.55 55.09"><defs><style>.cls-1{fill:#fff;}</style></defs><title>assets</title><path class="cls-1" d="M188.93,53.67c-19.51,0-38.49-7.56-51.13-21l-1.47-1.56,1.47-1.56A92.16,92.16,0,0,1,168,9.89c17.28-7,44.55-11.78,76.37,5.57l1.68.92-.62,1.81C239.54,35.34,224.71,47.65,204.7,52A74.54,74.54,0,0,1,188.93,53.67Z"/><path class="cls-1" d="M52.92,52c-20-4.33-34.84-16.65-40.69-33.79l-.62-1.81,1.68-.92C45.12-1.89,72.39,2.85,89.66,9.89a92.16,92.16,0,0,1,30.16,19.66l1.47,1.56-1.47,1.56c-12.65,13.44-31.63,21-51.13,21A74.54,74.54,0,0,1,52.92,52Z"/><path d="M188.93,51.17c-19.5-.21-37.44-7.59-50.83-21.82v3.54A88,88,0,0,1,179,8.81c22.67-6.07,45.42-1.35,65.74,9.73l-1.15-2.82C235.51,39.4,213,50.89,188.93,51.17c-3.22,0-3.22,5,0,5,26.46-.31,50.68-13.29,59.49-39.12a2.52,2.52,0,0,0-1.15-2.82C226.13,2.7,202.45-2.29,178.81,3.69a92.79,92.79,0,0,0-44.25,25.66,2.55,2.55,0,0,0,0,3.54c14.27,15.16,33.6,23.06,54.37,23.29C192.14,56.2,192.15,51.2,188.93,51.17Z"/><ellipse cx="191.57" cy="28.84" rx="6.6" ry="20.03"/><path d="M53.58,49.58C35,45.35,20.25,34,14,15.71l-1.15,2.82C33.19,7.46,56,2.74,78.62,8.81a88,88,0,0,1,40.9,24.07V29.35c-17,18-41.78,25.16-65.94,20.23-3.14-.64-4.48,4.18-1.33,4.82,25.88,5.28,52.59-2.17,70.8-21.52a2.55,2.55,0,0,0,0-3.54A92.79,92.79,0,0,0,78.81,3.69c-23.64-6-47.33-1-68.45,10.53A2.52,2.52,0,0,0,9.2,17c6.79,19.9,22.73,32.72,43,37.35C55.38,55.11,56.72,50.29,53.58,49.58Z"/><ellipse cx="66.05" cy="28.84" rx="6.6" ry="20.03"/></svg>