<svg xmlns="http://www.w3.org/2000/svg" viewBox="0 0 75.5 40.45"><defs><style>.cls-1{fill:#fff;}</style></defs><title>assets</title><g id="smallnose"><path class="cls-1" d="M55.86,10.93a2,2,0,0,0-.54,0,2,2,0,0,0-.51,0l-1,.1c-8.08-8.55-23.56-8.53-31.54.14-7.78-1-15.18,5.1-13.61,13.52,1.52,8.18,10.63,11.81,17.52,7.87a23.54,23.54,0,0,0,23.49.22c6.53,3.29,14.83.39,16.88-7.09S63.12,11.62,55.86,10.93Z"/><path d="M55.86,8.43C52.95,8.19,50,4.79,47,3.69A26,26,0,0,0,34.79,2.37,25,25,0,0,0,22.94,7.22c-2.82,2.09-6.54,1.48-9.76,3.27A14,14,0,0,0,8.1,30c4.13,6.75,12.64,8.15,19.37,4.74H25a26.85,26.85,0,0,0,26,.22H48.44c7.63,3.38,17,1,20.13-7.31,3.38-9-3-17.78-12.05-19.12-3.15-.47-4.51,4.35-1.33,4.82,7,1,12.67,8.61,7.25,15.09a9.26,9.26,0,0,1-7.32,3.19C53,31.57,51.06,30,49,30.37c-3.35.66-6,2.69-9.59,2.9a21.86,21.86,0,0,1-10.61-2.12c-2.16-1-2.51-1.14-4.71-.38-2.92,1-5.6,1.27-8.45-.28a9,9,0,0,1-.51-15.39c2.68-1.69,5.22-.64,7.8-1.52,1.92-.66,3.37-2.82,5.15-3.86A20.59,20.59,0,0,1,44.44,8.09c3.17,1,4.86,3.31,7.64,4.7,1.43.72,2.17.51,3.78.64C59.06,13.69,59,8.69,55.86,8.43Z"/></g></svg>