<svg xmlns="http://www.w3.org/2000/svg" viewBox="0 0 94.72 82.5"><defs><style>.cls-1{fill:#fff;}</style></defs><title>assets</title><g id="mediumnose"><path class="cls-1" d="M77.46,51.4C81.32,31.8,72.37,4.29,49,3.7,25.05,3.1,15.67,31.22,19.32,51,11.46,52,1.09,57.37,5.09,66.43c4.16,9.42,18.07,9.86,26.45,6.15,10.06,8.08,22.69,8.34,33,.59,8.2,2.82,20.71,2.3,24.92-6.46C93.54,58.27,84.71,53,77.46,51.4Z"/><path d="M79.87,52.07C83.79,30.74,74,1.28,48.35,1.2c-25.46-.08-35,29.47-31.44,50.51l1.75-3.08c-8.91,1.26-20.3,7.86-16,18.46C6.49,76.44,18,78.37,26.87,76.63a29.09,29.09,0,0,1,3.31-.87c1.53-.1,1.25-.11,2.78.9a28.85,28.85,0,0,0,9.14,3.91A28.06,28.06,0,0,0,60,78.77c1.42-.63,3.09-2.09,4.52-2.48a5.41,5.41,0,0,1,2.84.21,31.46,31.46,0,0,0,8.11.65c4.85-.28,9.84-1.74,13.37-5.24s5.5-9.22,3-14C89.24,52.86,83.38,50.3,78.13,49c-3.12-.78-4.46,4-1.33,4.82,4.63,1.15,12.14,4,11,10S80,72,74.8,72.17c-4.51.18-9-2.57-12.85-.2-5.71,3.48-11.85,5.26-18.52,3.78a25.13,25.13,0,0,1-8.62-3.87c-2.25-1.53-2.46-2-4.92-1.31-4.6,1.2-8.84,2.25-13.64,1.22-4.6-1-10.74-4.93-9.39-10.54C8.12,56,15.46,54.09,20,53.45c1.43-.2,1.95-1.89,1.75-3.08C18.67,32.52,26.48,6.13,48.35,6.2c22.11.07,30,26.42,26.7,44.54C74.47,53.88,79.29,55.23,79.87,52.07Z"/></g></svg>