<svg xmlns="http://www.w3.org/2000/svg" viewBox="0 0 257.55 119.09"><defs><style>.cls-1{fill:#fff;}</style></defs><title>assets</title><g id="curlyhair"><path class="cls-1" d="M228.8,38.79h-.17a25.19,25.19,0,0,0-49.25-4,25.19,25.19,0,0,0-49.25,4h-.34a25.19,25.19,0,0,0-50.05,0h-.34a25.19,25.19,0,0,0-50.05,0l-1.14,0a25.2,25.2,0,0,0,0,50.39q.63,0,1.26,0a25.2,25.2,0,0,0,49.81,0h.59a25.2,25.2,0,0,0,49.8,0h.59a25.2,25.2,0,0,0,49.13,3,25.2,25.2,0,0,0,49.13-3h.3a25.2,25.2,0,0,0,0-50.39Z"/><path d="M228.8,36.29h-.17L231,38.13a28,28,0,0,0-24.7-24c-13.42-1.34-25.39,7.31-29.37,20h4.82c-4-12.66-15.95-21.31-29.37-20a28,28,0,0,0-24.7,24l2.41-1.84h-.34l2.41,1.84a27.66,27.66,0,0,0-54.87,0l2.41-1.84h-.34l2.41,1.84A28,28,0,0,0,54.36,14,28,28,0,0,0,26.92,38.15l2.41-1.84C13.84,35.92.5,48.29.5,64S13.92,92,29.46,91.65L27,89.81A28,28,0,0,0,54.36,113,28,28,0,0,0,81.67,89.84l-2.41,1.84a5.84,5.84,0,0,0,.59,0l-2.41-1.84a27.68,27.68,0,0,0,54.62,0l-2.41,1.84a5.84,5.84,0,0,0,.59,0l-2.41-1.84a28,28,0,0,0,25.24,23.07c13.22,1,24.81-7.61,28.71-20H177c3.91,12.41,15.49,21.06,28.71,20a28,28,0,0,0,25.24-23.07l-2.41,1.84c15,.38,27.57-12.24,28-27,.42-15.64-12.37-28-27.68-28.39-3.22-.09-3.22,4.91,0,5,12.65.34,23.05,10.49,22.68,23.39-.35,12.11-10.76,22.31-23,22a2.52,2.52,0,0,0-2.41,1.84c-1.85,10.15-9.59,18.25-20.07,19.35a23,23,0,0,1-24.24-16.3,2.52,2.52,0,0,0-4.82,0,23,23,0,0,1-24.24,16.3c-10.48-1.11-18.23-9.2-20.07-19.35a2.51,2.51,0,0,0-2.41-1.84,5.84,5.84,0,0,1-.59,0,2.52,2.52,0,0,0-2.41,1.84c-2,11-11,19.44-22.49,19.49s-20.5-8.53-22.49-19.49a2.51,2.51,0,0,0-2.41-1.84,5.84,5.84,0,0,1-.59,0,2.52,2.52,0,0,0-2.41,1.84c-2,11-11,19.44-22.49,19.49S33.85,99.46,31.87,88.48a2.51,2.51,0,0,0-2.41-1.84C16.67,87,5.43,77.13,5.5,64A23,23,0,0,1,29.33,41.32a2.51,2.51,0,0,0,2.41-1.84C33.36,28,42.5,19.05,54.36,19s21,9.07,22.61,20.46a2.5,2.5,0,0,0,2.41,1.84h.34a2.51,2.51,0,0,0,2.41-1.84C83.77,28,92.9,19.05,104.76,19s21,9.07,22.61,20.46a2.5,2.5,0,0,0,2.41,1.84h.34a2.51,2.51,0,0,0,2.41-1.84c1.45-10.18,8.79-18.64,19.21-20.22C163.1,17.52,173.59,24.7,177,35.44a2.52,2.52,0,0,0,4.82,0c3.38-10.75,13.87-17.92,25.22-16.21,10.42,1.57,17.76,10,19.21,20.22a2.5,2.5,0,0,0,2.41,1.84h.17C232,41.21,232,36.21,228.8,36.29Z"/><path d="M48.81,73.68c-2.12-6.48-.89-14.76,6-17.88,7.36-3.32,14.88,1.88,17.69,8.67,1.21,2.93,6.05,1.65,4.82-1.33-3.75-9.08-13.14-16-23.23-12.43S40.94,65.67,44,75c1,3,5.82,1.74,4.82-1.33Z"/><path d="M183,58c2.5-6.61,9.38-12.14,16.74-9.55S209,59.51,207,66.32c-.91,3.09,3.92,4.42,4.82,1.33,2.76-9.43-.7-20.74-10.77-24s-19.42,3.86-22.89,13c-1.14,3,3.69,4.32,4.82,1.33Z"/></g></svg>