<svg xmlns="http://www.w3.org/2000/svg" viewBox="0 0 257.55 55.09"><defs><style>.cls-1{fill:#fff;}</style></defs><title>assets</title><g id="normal"><path class="cls-1" d="M197,6.91c-22.37,0-40.5,9.4-40.5,21s18.13,21,40.5,21,40.5-9.4,40.5-21S219.32,6.91,197,6.91Z"/><path class="cls-1" d="M11.45,27.91c0,11.6,18.13,21,40.5,21s40.5-9.4,40.5-21-18.13-21-40.5-21S11.45,16.31,11.45,27.91Z"/><circle cx="195.95" cy="26.41" r="12.5"/><circle cx="51.95" cy="26.41" r="12.5"/><path d="M197,4.41c-13.55.15-32.72,3-40.64,15.68-7,11.3,3.23,21.54,13.14,26,15.32,6.85,34.66,7.19,50.46,1.78,9.88-3.38,23.27-11.75,19.36-24.19C234.32,7.9,210.63,4.56,197,4.41c-3.22,0-3.22,5,0,5,8.9.1,18.08,1.35,26.2,5.22,5.15,2.46,11.8,6.82,11.8,13.28s-6.65,10.82-11.8,13.28c-8.07,3.85-17.33,5.22-26.2,5.22s-18.13-1.37-26.2-5.22C165.6,38.73,159,34.36,159,27.91s6.65-10.82,11.8-13.28C178.87,10.76,188,9.51,197,9.41,200.17,9.37,200.18,4.37,197,4.41Z"/><path d="M9,27.91C9.51,41.55,25.8,47.79,37.07,50c15.76,3.07,35.52,2,49-7.65,9.31-6.67,12-17.9,3.14-26.29C77.73,5.13,58.34,3.22,43.38,4.88,30.7,6.29,9.61,12,9,27.91c-.13,3.22,4.87,3.21,5,0,.27-6.52,6.46-10.73,11.8-13.28C33.82,10.78,43.09,9.41,52,9.41s18.13,1.37,26.2,5.22C83.3,17.09,90,21.45,90,27.91S83.3,38.73,78.15,41.19C70.08,45,60.82,46.41,52,46.41S33.82,45,25.76,41.19C20.41,38.63,14.22,34.43,14,27.91,13.82,24.7,8.82,24.68,9,27.91Z"/></g></svg>