<svg xmlns="http://www.w3.org/2000/svg" viewBox="0 0 257.55 119.09"><defs><style>.cls-1{fill:#fff;}</style></defs><title>assets</title><g id="mushroomhair"><path class="cls-1" d="M238.36,98.73c0-31.19-47.16-86.27-105.33-86.27S27.71,67.54,27.71,98.73c0,.15,8.29,2.42,22.18,5l4.84-15.06,3.51,16.53c7.23,1.21,15.52,2.41,24.62,3.43L84.53,97l1.72,12A447.55,447.55,0,0,0,133,111.54q2.79,0,5.54,0V99.76l3.89,11.67A468.05,468.05,0,0,0,209.3,105L205.1,91.45l8.51,12.76C229.05,101.43,238.36,98.88,238.36,98.73Z"/><path d="M240.86,98.73c-.23-18.4-12.06-35.85-24-48.95-16-17.5-37-31.12-60.08-36.86C109.68,1.2,59.71,27.64,35.34,68.22c-5,8.29-9.09,17.61-10,27.34-.33,3.61,0,5.14,3.48,6.14,6.66,1.93,13.58,3.17,20.39,4.46a2.57,2.57,0,0,0,3.08-1.75l4.84-15.06H52.33l3.51,16.53a2.43,2.43,0,0,0,1.75,1.75q12.6,2.08,25.29,3.52a2.49,2.49,0,0,0,2.41-1.84l1.66-11.65H82.12l1.72,12a2.53,2.53,0,0,0,2.41,1.84A456.47,456.47,0,0,0,138.58,114a2.54,2.54,0,0,0,2.5-2.5V99.76l-4.91.66,3.89,11.67a2.56,2.56,0,0,0,2.41,1.84A478.2,478.2,0,0,0,210,107.38a2.52,2.52,0,0,0,1.75-3.08l-4.19-13.52-4.57,1.93,8.51,12.76a2.62,2.62,0,0,0,2.82,1.15c6.25-1.14,12.5-2.37,18.68-3.85,2-.48,4.89-.72,6.67-1.89,2.68-1.75.18-6.08-2.52-4.32.82-.54-1.25.32-1.7.44-1.6.43-3.22.82-4.84,1.19-5.84,1.36-11.72,2.52-17.62,3.6l2.82,1.15-8.51-12.76c-1.5-2.26-5.45-.91-4.57,1.93l4.19,13.52,1.75-3.08a468.72,468.72,0,0,1-66.16,6.38l2.41,1.84L141,99.1c-.87-2.61-4.91-2.25-4.91.66v11.74l2.5-2.5a456.48,456.48,0,0,1-52.33-2.49l2.41,1.84-1.72-12c-.34-2.39-4.48-2.39-4.82,0L80.46,108l2.41-1.84q-12-1.38-24-3.34l1.75,1.75L57.15,88c-.54-2.54-4.11-2.21-4.82,0l-4.84,15.06,3.08-1.75c-5.27-1-10.54-2.06-15.76-3.3-1.44-.34-2.87-.71-4.31-1.07-.46-.12-2.22-.84-1.52-.39l1.24,2.16C30.4,83.31,39.89,68.43,49.49,57c13-15.41,29.78-28,48.6-35.31C138.8,6,182.38,20.63,211.63,51.48c11.74,12.37,24,29.43,24.23,47.25C235.9,101.94,240.9,101.95,240.86,98.73Z"/></g></svg>