<svg xmlns="http://www.w3.org/2000/svg" viewBox="0 0 276.08 275.65"><defs><style>.cls-1{fill:#fff;}</style></defs><title>assets</title><g id="head"><path class="cls-1" d="M136.09,268.65h1c-22.86,0-130-47.71-130-70.57V48.72A41.69,41.69,0,0,1,48.6,7.15H227.45A41.69,41.69,0,0,1,269,48.72V198.08C269,220.94,159,268.65,136.09,268.65Z"/><path d="M136.09,271.15h1c3.22,0,3.22-5,0-5-5.63-.07-11.31-1.86-16.65-3.47-8.45-2.56-16.74-5.67-24.92-9a390.88,390.88,0,0,1-55.67-27.53,142.92,142.92,0,0,1-21-14.85c-3.61-3.2-8.59-7.54-9.28-12.64-1-7.28,0-15.32,0-22.64V73.76c0-8.33-.11-16.66,0-25A39.68,39.68,0,0,1,49.4,9.65c25.73-.13,51.46,0,77.18,0h93c2.53,0,5.06,0,7.59,0a39.19,39.19,0,0,1,39.33,39.49c0,3.1,0,6.2,0,9.29V194.25c0,2.06.22,4.18-.47,6.15-1.82,5.22-7.22,9.45-11.34,12.78-14.77,11.91-32.34,20.72-49.41,28.79s-34.94,15.63-53.23,21c-5.14,1.5-10.58,3.15-16,3.21-3.22,0-3.22,5,0,5,5.84-.07,11.74-1.77,17.3-3.39,8.66-2.52,17.15-5.63,25.54-8.94a421.46,421.46,0,0,0,57.58-27.51,171.36,171.36,0,0,0,22-14.84c4.6-3.75,9.64-8.19,12-13.82a18.49,18.49,0,0,0,1-7.43V75.31c0-8.85.12-17.71,0-26.56a44.72,44.72,0,0,0-44.09-44.1c-24.33-.33-48.7,0-73,0H56.45C43.31,4.65,31,6.08,20.37,15A44.43,44.43,0,0,0,4.56,47.33c-.09,2.58,0,5.18,0,7.76v139c0,2.44-.18,4.93.52,7.3,1.64,5.52,6.35,10,10.54,13.73C30.13,227.87,48,237.15,65.25,245.6c17.7,8.65,36.05,16.67,55,22.24,5.41,1.59,11.14,3.24,16.83,3.31v-5h-1C132.87,266.15,132.87,271.15,136.09,271.15Z"/></g></svg>