<svg xmlns="http://www.w3.org/2000/svg" viewBox="0 0 257.55 119.09"><defs><style>.cls-1{fill:#fff;}</style></defs><title>assets</title><g id="combedhair"><path class="cls-1" d="M247.81,59.14c-1.63-15.24-27.85-21-47.59-23.25-16-18.47-47.62-33.07-71.48-19.71A29.29,29.29,0,0,0,121.26,22c-8.89-5.08-25.08-12.7-32.53-5.88-10.55,9.67-29,13.18-40.43,16.7S-13.21,57.68,9.64,111.58C43,88.43,30.73,74.08,42.16,69.68c9.44-3.63,62.63,1.73,82.85-13.62.88,1.12,1.46,1.75,1.46,1.75,11,8.11,22.39,3.15,33.55,2.39,20.39-1.39,43,58.57,61.25,50.66-18.79-8.07-13.15-27.05-12-45.07a52.56,52.56,0,0,0,16.55,5.64c16.7,2.64,22,43.06,22,43.06S250.44,83.74,247.81,59.14Z"/><path d="M250.22,58.47c-1.52-10.53-12.16-16-21.21-19.16a113.55,113.55,0,0,0-20.14-4.77c-2.28-.36-5.83-.25-7.77-1.42-2.7-1.62-5.06-5.14-7.56-7.19-19.62-16.18-53.7-26.83-74-5.74l3-.39c-6.63-3.74-13.83-7.31-21.41-8.53a20.84,20.84,0,0,0-9.21.26c-3.49,1-5.79,3.76-8.73,5.74-11.62,7.85-25.71,9.33-38.56,14.14-16.87,6.32-33,18.34-39.87,35.45-6,14.84-3.48,31,2.48,45.39.56,1.35,2.21,2.53,3.67,1.49C20.49,107,30,99,35,88.12c2-4.3,2.44-12.16,6.35-15.19,1.91-1.48,4.68-1.61,7-1.81,4.12-.37,8.27-.46,12.4-.59,11.19-.35,22.4-.68,33.52-2.09s22.92-3.53,32-10.22l-3-.39c4.31,5.34,11.78,7.15,18.39,7.06s14.24-3.33,20.88-2c8.53,1.67,15.35,11.63,20.32,17.94,6.54,8.31,12.46,17.27,19.92,24.81,4.86,4.91,11.84,10.54,19.16,7.65,1.76-.69,2.76-3.58.6-4.57-17.34-7.94-11.82-27.64-10.73-42.91L208,68a59.41,59.41,0,0,0,13.57,5.2c3.2.75,6,.93,8.68,3,4.45,3.56,7.09,9.44,9.06,14.64a108.71,108.71,0,0,1,4.51,15.76q.62,2.89,1.11,5.81c.08.46.5,3.36.34,2.09a2.5,2.5,0,0,0,5,0,299.32,299.32,0,0,0,0-55.37c-.32-3.17-5.33-3.2-5,0a299.31,299.31,0,0,1,0,55.37h5a109.76,109.76,0,0,0-6.88-26.87c-2.17-5.33-4.92-10.83-9.3-14.7a16.51,16.51,0,0,0-6.5-3.66c-6-1.65-11.47-2.76-17.07-5.64a2.53,2.53,0,0,0-3.76,2.16C205.56,83.09,200.57,104.13,220,113l.6-4.57c-7.14,2.82-14-5.81-18.08-10.49-6.63-7.68-12.32-16.11-18.76-23.94-5-6-10.9-13.18-18.63-15.62-12.22-3.87-28.39,8.23-38.35-4.1a2.49,2.49,0,0,0-3-.39c-8.42,6.17-19.38,8.22-29.52,9.54-11.11,1.44-22.33,1.74-33.52,2.09-6.28.2-14.15-.51-20.05,2.09-5.23,2.31-6.43,7.34-8,12.35-3.93,12.88-13.55,21.86-24.32,29.45l3.67,1.49C6.94,98.57,4.19,85,8.23,71.93c3-9.56,9.29-17.62,17-23.87A75.61,75.61,0,0,1,44.55,36.77c10-4,20.76-5.68,30.74-9.81A58.63,58.63,0,0,0,85.7,21.58c3.41-2.3,5.95-5.41,10.31-5.7,8.29-.55,17,4.29,24,8.23a2.55,2.55,0,0,0,3-.39c19.41-20.12,52.71-7.62,70.17,8.54,1.64,1.51,3.59,4.52,5.49,5.59s5.21,1,7.48,1.3a131.72,131.72,0,0,1,16.35,3.36c8.87,2.48,21.36,6.74,22.87,17.28C245.85,63,250.67,61.62,250.22,58.47Z"/><path d="M198.69,37.66c1.44.67,2.71,2.68,3.6,4.35,3.74,7,4.09,15.73,4.16,23.49,0,3.22,5,3.22,5,0-.07-8.67-.66-18.19-4.84-26-1.19-2.22-3-5-5.4-6.15-2.9-1.36-5.44,3-2.52,4.32Z"/></g></svg>