<svg xmlns="http://www.w3.org/2000/svg" viewBox="0 0 257.55 119.09"><defs><style>.cls-1{fill:#fff;}</style></defs><title>assets</title><g id="coolhair"><path class="cls-1" d="M58.93,53.65s17.89,28.2,49.2,31c-8.95-16.35-9.69-16.35-9.69-16.35,61.87,18,82.74,32.71,97.65,24.81-17.89-13.53-17.89-13-17.89-13C196.09,93.13,211,92,211,92c4.47,11.28,13.42,20,13.42,20s16.4-42.56,13.42-54.4A203,203,0,0,1,245.29,92c6-41.73-4.47-63.16-50.69-68.8,16.4-6.77,29.82-.56,29.82-.56-32.8-15.23-116.29-8.46-135.67-2.82,17.89-15.79,19.38-13,19.38-13-31.31.56-49.2,15.79-49.2,15.79-22.36-1.69-36.53,3.95-36.53,3.95l9.69,5.64C12.72,40.12,5.26,49.14,6.75,59.29c15.65,3.95,12.67,4.51,12.65,4.57,4.27,8.14,3,22.5,3,22.5S63.41,68.88,58.93,53.65Z"/><path d="M56.78,54.92C67.92,72.33,87.6,85,108.13,87.17c2,.2,3-2.25,2.16-3.76-2.74-5-5.36-10.18-8.58-14.89-.65-1-1.37-2.32-2.61-2.61-3.13-.73-4.43,3.91-1.33,4.82,22.9,6.71,45.13,15.18,67.79,22.58,10,3.27,21.75,7.11,31.78,2,1.84-.94,1.38-3.28,0-4.32-5.4-4.08-10.82-9-16.77-12.32-1.79-1-3.75-1.67-4.8.84a2.53,2.53,0,0,0,1.15,2.82c9.61,6.78,22.26,13,34.43,12.47L209,92.95a64.59,64.59,0,0,0,13.69,20.82,2.53,2.53,0,0,0,4.18-1.1c3-7.83,5.72-15.79,8.15-23.82,2.9-9.54,7.49-21.79,5.27-31.91l-4.82,1.33c3.26,11,6.17,22.32,7.36,33.73.26,2.53,4.49,3.7,4.91.66,2.3-16.46,3.75-35.81-6.28-50.22C230.94,27.39,211.75,22.88,194.6,20.7l.66,4.91c8.58-3.32,19.82-4.44,27.89-.82,2.91,1.31,5.46-3,2.52-4.32-16.83-7.63-36.56-8.86-54.77-9.46a406.09,406.09,0,0,0-61.44,2.67c-7.15.86-14.44,1.74-21.38,3.71l2.43,4.18c4.57-4,9.29-8.43,14.67-11.36.16-.09,2.42-1,2.44-1.09,0,.17-1.21-.31-1.66-1l2.16-3.76c-17,.46-34.78,4.78-48.76,14.83-.47.34-1.2,1.15-1.74,1.31-1.05.3.06-.1-1.53-.52-5.35-1.42-13,0-18.39.66a66.85,66.85,0,0,0-16,3.55c-1.92.75-2.6,3.41-.6,4.57l9.69,5.64.6-4.57C19.25,34.89,2.35,43.49,4.25,59.29A2.6,2.6,0,0,0,6.09,61.7c3.43.88,6.89,2.27,10.34,3a15.14,15.14,0,0,0,1.51.67c-.27.14.7-3.94.2-3.63a2.57,2.57,0,0,0-.9,3.42c3.07,6.38,3.24,14.28,2.66,21.24-.17,2.1,2.2,2.83,3.76,2.16a129.14,129.14,0,0,0,22.1-12.08c7.32-5,18.13-13.2,15.58-23.45-.78-3.12-5.6-1.8-4.82,1.33C58.73,63.16,45,71.21,38.91,74.93A137,137,0,0,1,21.15,84.2l3.76,2.16c.66-7.9.12-16.55-3.35-23.76L20.66,66c7.54-4.56-12.38-8.92-13.25-9.14l1.84,2.41C7.65,46,22.54,38.9,32.76,34.64c1.88-.78,2.62-3.39.6-4.57l-9.69-5.64L23.07,29a64.63,64.63,0,0,1,16-3.54,103.49,103.49,0,0,1,17-.5c2.35.12,3.63,0,5.15-1,13.92-9.53,30-14.16,46.87-14.62a2.52,2.52,0,0,0,2.16-3.76C106.1-1.15,89.12,16.18,87,18.05c-1.92,1.68.12,4.84,2.43,4.18,7.81-2.22,16.05-3.12,24.1-4,12.42-1.34,24.91-2.08,37.4-2.32a323,323,0,0,1,39.4,1.37c11.06,1.14,22.64,2.88,32.85,7.51l2.52-4.32c-9.92-4.45-21.85-3.51-31.74.31a2.51,2.51,0,0,0,.66,4.91c15.47,2,33.8,6.06,43,20,8.71,13.2,7.36,30.74,5.29,45.64l4.91.66c-1.24-11.87-4.15-23.65-7.54-35.06-.92-3.1-5.51-1.81-4.82,1.33.95,4.3-.21,9.19-1.09,13.41-1.27,6.06-3,12-4.82,18-2.27,7.31-4.76,14.57-7.5,21.71l4.18-1.1a58.33,58.33,0,0,1-12.4-18.62,2.59,2.59,0,0,0-2.41-1.84c-11.35.53-23-5.47-31.91-11.78l1.15,2.82c-.4,1-3.23,2.08-3.44,1.59.06.14.45.21.55.34a12,12,0,0,0,2.34,1.6c5,3.52,9.88,7.25,14.77,10.94V91c-9.35,4.79-21.6-.33-30.68-3.4-21.67-7.32-43.08-15.23-65-21.67l-1.33,4.82c-.8-.19-1-.57-1-.61a14.82,14.82,0,0,0,1.48,2.24c2.76,4.41,5.23,9,7.74,13.57l2.16-3.76c-18.68-1.93-36.91-14-47-29.78C59.36,49.69,55,52.19,56.78,54.92Z"/><path d="M105.15,33c-.15.07-.26.08.37-.13s1.51-.51,2.28-.72a44.54,44.54,0,0,1,8.31-1.44c10.92-.9,21.73,1.19,32.08,4.54V30.44c-8,2.72-17.5,5.9-23.83,11.86-2.35,2.21,1.19,5.74,3.54,3.54,5.66-5.32,14.51-8.16,21.62-10.57a2.52,2.52,0,0,0,0-4.82c-14.08-4.56-32.68-8.23-46.9-1.75-2.92,1.33-.39,5.64,2.52,4.32Z"/></g></svg>