<svg xmlns="http://www.w3.org/2000/svg" viewBox="0 0 94.49 120.5"><defs><style>.cls-1{fill:#fff;}</style></defs><title>assets</title><g id="longnose"><path class="cls-1" d="M90.85,65.51a3.76,3.76,0,0,0,0-2c-1-6-6.47-9.24-12.14-10.53-.91-12-3.57-24.22-9.92-34.51C64.36,11.26,57.33,4.37,48.32,4.38s-16,6.84-20.45,14c-6.31,10.2-9,22.36-9.93,34.23C11.26,53.63,3.11,57.22,3.5,65S12.28,75.79,19,76.5c2.6,15.25,10.63,39.62,29.35,39.62s26.85-24.68,29.4-39.93C83.73,75,89.8,71.94,90.85,65.51Z"/><path d="M93.26,66.18c1.16-8.49-6.63-13.75-13.88-15.62L81.22,53c-1.51-18.18-9.12-51-32.9-51.09-9.87,0-17.71,7.36-22.61,15.26C19.1,27.8,16.5,40.3,15.44,52.63l1.84-2.41C9.22,51.6-.26,56.58,1.14,66.2,2.39,74.8,11.44,78.06,19,79l-2.41-1.84c2.9,16.52,11.19,41.45,31.76,41.45S77.27,93.45,80.13,76.85L78.38,78.6c6.91-1.51,13.22-5.08,14.88-12.42C94,63,89.15,61.7,88.44,64.85c-1.28,5.66-6.18,7.79-11.39,8.93a2.43,2.43,0,0,0-1.75,1.75c-2.44,14.15-9,38-27,38.1S23.84,89.79,21.38,75.83A2.55,2.55,0,0,0,19,74c-5.13-.64-12.5-2.86-13-9-.51-6.65,7.47-9.05,12.6-9.93a2.54,2.54,0,0,0,1.84-2.41c.86-10.05,2.83-20.2,7.49-29.24,4-7.74,10.79-16.5,20.39-16.51,9.32,0,16,8.33,20,15.83,5,9.3,7,19.84,7.86,30.26a2.58,2.58,0,0,0,1.84,2.41c4.06,1,11.13,4,10.39,9.47C88,68,92.83,69.35,93.26,66.18Z"/></g></svg>