<svg xmlns="http://www.w3.org/2000/svg" viewBox="0 0 257.55 119.09"><defs><style>.cls-1{fill:#fff;}</style></defs><title>assets</title><g id="armyhair"><path class="cls-1" d="M252.58,45.3c-16.32-15.8-90.45-29.08-123-29.29h-.78c-32.54.21-106.67,13.5-123,29.29C2.68,58,23.05,116,23.05,116S39.5,105.17,39.5,91.16c1.48-35.52,80.63-19.83,89.3-18v.17l.39-.09.39.09v-.17c8.67-1.83,87.82-17.52,89.3,18,0,14,16.45,24.84,16.45,24.84S255.71,58,252.58,45.3Z"/><path d="M254.35,43.53c-5.83-5.46-13.72-8.59-21.11-11.3a262,262,0,0,0-34.76-9.69c-22.48-4.9-45.82-8.8-68.89-9l2.5,2.5h0a2.53,2.53,0,0,0-2.5-2.5h-.78a2.54,2.54,0,0,0-2.5,2.5h0l2.5-2.5c-15.83.16-31.69,2.31-47.29,4.9C63.9,21.33,46.23,25,29.29,30.77a105.1,105.1,0,0,0-18.13,7.68c-4,2.26-7.91,4.36-8.15,9.28-.61,12.49,4.25,26,7.69,37.84q4.56,15.67,9.94,31.09a2.53,2.53,0,0,0,3.67,1.49c7.29-4.86,14.24-12.27,16.76-20.8,1.33-4.5.57-9.21,2.84-13.46a19.38,19.38,0,0,1,8.31-7.71c8.07-4.28,17.85-5.2,26.83-5.48a190.38,190.38,0,0,1,29.3,1.6c6.63.82,13.25,1.89,19.8,3.26l-1.84-2.41v.17a2.53,2.53,0,0,0,3.16,2.41h-.55a2.53,2.53,0,0,0,3.16-2.41v-.17l-1.84,2.41a217.24,217.24,0,0,1,45.24-4.93c9.27,0,19.05.68,27.74,4.19S215.61,84,216.5,93c1,10.41,9.17,19.5,17.58,25.11a2.53,2.53,0,0,0,3.67-1.49q5.49-15.65,10.09-31.61c2.28-7.86,4.44-15.78,6-23.82,1-5.3,2.31-11.22,1.14-16.6-.69-3.14-5.51-1.81-4.82,1.33,1.15,5.28-.62,11.6-1.72,16.74-1.66,7.78-3.78,15.46-6,23.09q-4.38,14.88-9.49,29.54l3.67-1.49a43.44,43.44,0,0,1-8.47-7.61,30,30,0,0,1-5.4-8.46c-1.21-3.05-1.14-6.13-1.61-9.31-1.19-8-6.67-13.9-13.8-17.28C190,63,168,65.06,149.63,67.36c-6.94.87-13.86,2-20.71,3.39a2.53,2.53,0,0,0-1.84,2.41v.17l3.16-2.41a4.6,4.6,0,0,0-2.11,0l3.16,2.41v-.17a2.53,2.53,0,0,0-1.84-2.41,224,224,0,0,0-46.57-5.11C67.55,65.7,43.48,67.51,38,85.23a35.18,35.18,0,0,0-1,7.19,23.17,23.17,0,0,1-4.56,11.13,42.14,42.14,0,0,1-10.61,10.29l3.67,1.49c-2.67-7.6-5.14-15.27-7.51-23-3.9-12.67-8.1-25.76-9.65-39C8.09,51.57,7.57,49,8,47.19c.32-1.25,2.16-2.31,3.94-3.42A85.5,85.5,0,0,1,29,36.13c15.74-5.49,32.18-9.09,48.57-12,16.85-3,34-5.45,51.2-5.62a2.54,2.54,0,0,0,2.5-2.5h0l-2.5,2.5h.78l-2.5-2.5h0a2.54,2.54,0,0,0,2.5,2.5c22.2.22,44.6,3.93,66.26,8.57a282.63,282.63,0,0,1,33,8.87c7.53,2.6,16.05,5.56,22,11.11C253.16,49.27,256.7,45.74,254.35,43.53Z"/></g></svg>