<svg xmlns="http://www.w3.org/2000/svg" viewBox="0 0 257.55 55.09"><defs><style>.cls-1{fill:#fff;}</style></defs><title>assets</title><g id="squinty"><path class="cls-1" d="M27.39,27.91c0,8.28,13,15,28.93,15s28.93-6.72,28.93-15-13-15-28.93-15S27.39,19.62,27.39,27.91Z"/><circle cx="56.32" cy="27.84" r="8.93"/><path d="M24.89,27.91c.57,9.86,11.53,14.54,19.9,16.31,11.7,2.47,26.4,1.71,36.42-5.5C88,33.86,90,25.63,83.86,19.32,75.74,11,61.18,9.55,50.28,10.74,40.62,11.8,25.58,16,24.89,27.91c-.19,3.21,4.81,3.2,5,0,.61-10.48,18.95-12.5,26.43-12.5,7,0,26.43,2.09,26.43,12.5C82.75,38,64.07,40.29,57.2,40.39c-7.6.12-26.69-1.72-27.31-12.49C29.7,24.71,24.7,24.69,24.89,27.91Z"/><path d="M25.18,17.91H85.32c7.59,0,7.6-8,0-8H25.18c-7.59,0-7.6,8,0,8Z"/><path d="M25.18,45.91H85.32c7.59,0,7.6-8,0-8H25.18c-7.59,0-7.6,8,0,8Z"/><path class="cls-1" d="M171.39,27.91c0,8.28,13,15,28.93,15s28.93-6.72,28.93-15-13-15-28.93-15S171.39,19.62,171.39,27.91Z"/><circle cx="200.32" cy="27.84" r="8.93"/><path d="M168.89,27.91c.57,9.86,11.53,14.54,19.9,16.31,11.7,2.47,26.4,1.71,36.42-5.5,6.75-4.85,8.81-13.08,2.65-19.39-8.12-8.33-22.68-9.78-33.58-8.58-9.66,1.06-24.71,5.28-25.39,17.17-.19,3.21,4.81,3.2,5,0,.61-10.48,18.95-12.5,26.43-12.5,7,0,26.43,2.09,26.43,12.5,0,10.14-18.67,12.38-25.55,12.49-7.6.12-26.69-1.72-27.31-12.49C173.7,24.71,168.7,24.69,168.89,27.91Z"/><path d="M169.18,17.91h60.14c7.59,0,7.6-8,0-8H169.18c-7.59,0-7.6,8,0,8Z"/><path d="M169.18,45.91h60.14c7.59,0,7.6-8,0-8H169.18c-7.59,0-7.6,8,0,8Z"/></g></svg>