<svg id="Layer_1" data-name="Layer 1" xmlns="http://www.w3.org/2000/svg" viewBox="0 0 50 50"><defs><style>.cls-1{fill:#fff;}</style></defs><title>icon</title><polygon class="cls-1" points="6 24.57 25.5 44.07 45 24.57 36.64 24.57 36.64 6.93 14.36 6.93 14.36 24.57 6 24.57"/><path d="M4.94,25.63l19.5,19.5a1.52,1.52,0,0,0,2.12,0l19.5-19.5A1.52,1.52,0,0,0,45,23.07H36.64l1.5,1.5V6.93a1.52,1.52,0,0,0-1.5-1.5H14.36a1.52,1.52,0,0,0-1.5,1.5V24.57l1.5-1.5H6a1.5,1.5,0,0,0,0,3h8.36a1.52,1.52,0,0,0,1.5-1.5V6.93l-1.5,1.5H36.64l-1.5-1.5V24.57a1.52,1.52,0,0,0,1.5,1.5H45l-1.06-2.56L24.44,43h2.12L7.06,23.51A1.5,1.5,0,0,0,4.94,25.63Z"/></svg>