<svg id="Layer_1" data-name="Layer 1" xmlns="http://www.w3.org/2000/svg" viewBox="0 0 50 50"><defs><style>.cls-3{fill:#b3b3b3;}.cls-4{fill:#fff;}</style></defs><title>icon</title><polygon class="cls-3" points="43.7 42 22.8 42 7.24 21.1 28.14 21.1 43.7 42"/><path d="M43.7,40.5H31.78a67.35,67.35,0,0,0-7.34,0c-.52.06-1.07-.06-1.59,0,1.23-.14,1.26,1.44.68,0s-2.31-3.11-3.31-4.45l-5.08-6.82L8.54,20.34,7.24,22.6H19.16a67.35,67.35,0,0,0,7.34,0c.52-.06,1.07.06,1.59,0-1.23.14-1.26-1.44-.68,0s2.31,3.11,3.31,4.45l5.08,6.82,6.61,8.89c1.14,1.53,3.74,0,2.59-1.51L37.8,31.58c-2.52-3.38-5-8.36-8.25-11.08-2.07-1.74-5.87-.89-8.49-.89H7.24a1.51,1.51,0,0,0-1.3,2.26l7.19,9.67c2.52,3.38,5,8.36,8.25,11.08,2.07,1.74,5.87.89,8.49.89H43.7A1.5,1.5,0,0,0,43.7,40.5Z"/><polygon class="cls-4" points="43.7 28.4 22.8 28.4 7.24 7.5 28.14 7.5 43.7 28.4"/><path d="M43.7,26.9H31.78a67.35,67.35,0,0,0-7.34,0c-.52.06-1.07-.06-1.59,0,1.23-.14,1.26,1.44.68,0s-2.31-3.11-3.31-4.45l-5.08-6.82L8.54,6.74,7.24,9H19.16a67.35,67.35,0,0,0,7.34,0c.52-.06,1.07.06,1.59,0-1.23.14-1.26-1.44-.68,0s2.31,3.11,3.31,4.45l5.08,6.82,6.61,8.89c1.14,1.53,3.74,0,2.59-1.51L37.8,18c-2.52-3.38-5-8.36-8.25-11.08C27.49,5.16,23.69,6,21.07,6H7.24a1.51,1.51,0,0,0-1.3,2.26l7.19,9.67c2.52,3.38,5,8.36,8.25,11.08,2.07,1.74,5.87.89,8.49.89H43.7A1.5,1.5,0,0,0,43.7,26.9Z"/></svg>