<svg id="Layer_1" data-name="Layer 1" xmlns="http://www.w3.org/2000/svg" viewBox="0 0 50 50"><defs><style>.cls-1{fill:#fff;}</style></defs><title>icon</title><rect class="cls-1" x="14.5" y="6.5" width="21" height="10"/><path d="M35.5,15h-21L16,16.5V6.5L14.5,8h21L34,6.5v10a1.5,1.5,0,0,0,3,0V6.5A1.52,1.52,0,0,0,35.5,5h-21A1.52,1.52,0,0,0,13,6.5v10A1.52,1.52,0,0,0,14.5,18h21A1.5,1.5,0,0,0,35.5,15Z"/><rect class="cls-1" x="8" y="14" width="34" height="31"/><path d="M42,43.5H8L9.5,45V14L8,15.5H42L40.5,14V45a1.5,1.5,0,0,0,3,0V14A1.52,1.52,0,0,0,42,12.5H8A1.52,1.52,0,0,0,6.5,14V45A1.52,1.52,0,0,0,8,46.5H42A1.5,1.5,0,0,0,42,43.5Z"/><rect class="cls-1" x="6" y="12" width="38" height="5"/><path d="M44,15.5H6L7.5,17V12L6,13.5H44L42.5,12v5a1.5,1.5,0,0,0,3,0V12A1.52,1.52,0,0,0,44,10.5H6A1.52,1.52,0,0,0,4.5,12v5A1.52,1.52,0,0,0,6,18.5H44A1.5,1.5,0,0,0,44,15.5Z"/><path d="M13,20.5v18a1.5,1.5,0,0,0,3,0v-18a1.5,1.5,0,0,0-3,0Z"/><path d="M23.5,21V39a1.5,1.5,0,0,0,3,0V21a1.5,1.5,0,0,0-3,0Z"/><path d="M34,21V39a1.5,1.5,0,0,0,3,0V21a1.5,1.5,0,0,0-3,0Z"/></svg>