<svg id="Layer_1" data-name="Layer 1" xmlns="http://www.w3.org/2000/svg" viewBox="0 0 50 50"><defs><style>.cls-1{fill:#fff;}</style></defs><title>icon</title><path d="M25,9.64V9.4a1.52,1.52,0,0,0-1.5-1.5c-4.7,0-14.29-2.12-15,4.62-.74,7,0,14.51,0,21.58,0,2.2-.42,4.86,1.09,6.69s4,1.62,6.19,1.62c7.33,0,14.83.49,22.14,0C45.45,41.91,43,31.21,43,26a1.5,1.5,0,0,0-3,0c0,3.34.55,7.12,0,10.41-.59,3.54-2.63,3-5.67,3H21.42c-2.26,0-6.17.81-8.3,0-2.67-1-1.62-5.94-1.62-8.11V18.59c0-2.58-1.06-6.61,2-7.69,2.67-1,7.16,0,10,0L22,9.4v.24a1.5,1.5,0,0,0,3,0Z"/><polygon class="cls-1" points="44 22.67 44 6.08 27.41 6.08 30.97 9.64 23.47 17.14 32.94 26.62 40.45 19.12 44 22.67"/><path d="M45.5,22.67V6.09A1.52,1.52,0,0,0,44,4.59H27.41a1.52,1.52,0,0,0-1.06,2.56l3.55,3.55V8.58l-7.5,7.5a1.52,1.52,0,0,0,0,2.12l9.48,9.48a1.52,1.52,0,0,0,2.12,0l7.5-7.5H39.39l3.55,3.55a1.5,1.5,0,0,0,2.12-2.12l-3.55-3.55a1.52,1.52,0,0,0-2.12,0l-7.5,7.5H34l-9.48-9.48V18.2L32,10.7a1.52,1.52,0,0,0,0-2.12L28.48,5,27.41,7.59H44l-1.5-1.5V22.67A1.5,1.5,0,0,0,45.5,22.67Z"/></svg>