<svg id="Layer_1" data-name="Layer 1" xmlns="http://www.w3.org/2000/svg" viewBox="0 0 50 50"><defs><style>.cls-1{fill:#fff;}</style></defs><title>icon</title><polygon class="cls-1" points="45 26.43 25.5 6.93 6 26.43 14.36 26.43 14.36 44.07 36.64 44.07 36.64 26.43 45 26.43"/><path d="M46.06,25.37,26.56,5.87a1.52,1.52,0,0,0-2.12,0L4.94,25.37A1.52,1.52,0,0,0,6,27.93h8.36l-1.5-1.5V44.07a1.52,1.52,0,0,0,1.5,1.5H36.64a1.52,1.52,0,0,0,1.5-1.5V26.43l-1.5,1.5H45a1.5,1.5,0,0,0,0-3H36.64a1.52,1.52,0,0,0-1.5,1.5V44.07l1.5-1.5H14.36l1.5,1.5V26.43a1.52,1.52,0,0,0-1.5-1.5H6l1.06,2.56L26.56,8H24.44l19.5,19.5A1.5,1.5,0,0,0,46.06,25.37Z"/></svg>